# xmcd CD database file
#
# Track frame offsets:
#	150
#	16031
#	46676
#	64638
#	111266
#	129093
#	149306
#	166221
#	179266
#	196916
#	214081
#	235926
#	259538
#	280071
#
# Disc length: 3959 seconds
#
# Revision: 5
# Processed by: cddbd v1.5.2PL0 Copyright (c) Steve Scherf et al.
# Submitted via: CDex 1.51
#
DISCID=b50f750e,d10f750e
DTITLE=Various Artist - White Boy's Blues Guitars CD1
DYEAR=1999
DGENRE=Blues
TTITLE0=Clem Clempson and Jack Bruce - Send For Me
TTITLE1=Rory Gallagher - Leaving Town Blues
TTITLE2=Peter Green and Nigel Watson - Travelling Riverside Blues
TTITLE3=Mick Taylor With Max Middleton - You Shook Me
TTITLE4=Mountain Feat. Leslie West - It's A Man's Man's Man's World
TTITLE5=Harvey Mandel - Watch Out
TTITLE6=Mick Abrahams - The Same Way
TTITLE7=Luther Grosvenor With Jess Roden - Cryin' Won't Bring You Back
TTITLE8=Savoy Brown - Sweet Loving Thing
TTITLE9=Miller Anderson - Don't Let Me Be Misunderstood
TTITLE10=Bobby Murray - The Future Is Now
TTITLE11=Mitch Woods Feat. John Lee Hooker - Never Get Out Of These Blues Alive
TTITLE12=Dave Peverett With Rod Price And Southside Johnny - If You Be My Baby
TTITLE13=The Pretty Things - Judgement Day
EXTD=YEAR: 1999
EXTT0=
EXTT1=
EXTT2=
EXTT3=
EXTT4=
EXTT5=
EXTT6=
EXTT7=
EXTT8=
EXTT9=
EXTT10=
EXTT11=
EXTT12=
EXTT13=
PLAYORDER=
